<svg xmlns="http://www.w3.org/2000/svg" width="48" height="48" viewBox="0 0 48 48">
  <defs>
    <filter id="g1" x="-50%" y="-50%" width="200%" height="200%">
      <feGaussianBlur stdDeviation="2.6" result="b"/>
      <feMerge>
        <feMergeNode in="b"/>
        <feMergeNode in="SourceGraphic"/>
      </feMerge>
    </filter>
    <filter id="g2" x="-50%" y="-50%" width="200%" height="200%">
      <feGaussianBlur stdDeviation="1.2"/>
    </filter>
    <radialGradient id="core" cx="55%" cy="50%" r="60%">
      <stop offset="0%" stop-color="#ffffff"/>
      <stop offset="45%" stop-color="#dff9ff"/>
      <stop offset="75%" stop-color="#7fe4ff"/>
      <stop offset="100%" stop-color="#43b9ff"/>
    </radialGradient>
    <linearGradient id="body" x1="0%" y1="50%" x2="100%" y2="50%">
      <stop offset="0%" stop-color="#5bd8ff" stop-opacity="0.2"/>
      <stop offset="45%" stop-color="#65ddff" stop-opacity="0.7"/>
      <stop offset="100%" stop-color="#dff9ff" stop-opacity="0.95"/>
    </linearGradient>
  </defs>

  <g filter="url(#g1)">
    <ellipse cx="16" cy="24" rx="10" ry="10" fill="#59d7ff" fill-opacity="0.35"/>
    <ellipse cx="20" cy="24" rx="10" ry="8" fill="#7ae4ff" fill-opacity="0.35"/>
    <path d="M8 18 L27 14 L40 20 L44 24 L40 28 L27 34 L8 30 L14 24 Z" fill="url(#body)" />
  </g>

  <g filter="url(#g2)">
    <path d="M7 24 L12 19 L17 23 L22 16 L27 24 L31 19 L35 25 L41 18" fill="none" stroke="#8fe8ff" stroke-width="4" stroke-linecap="round" stroke-linejoin="round" stroke-opacity="0.85"/>
    <path d="M8 27 L13 30 L18 24 L22 29 L27 22 L31 28 L36 21 L41 24" fill="none" stroke="#8fe8ff" stroke-width="4" stroke-linecap="round" stroke-linejoin="round" stroke-opacity="0.85"/>
  </g>

  <path d="M10 20 L26 17 L39 21 L43 24 L39 27 L26 31 L10 28 L15 24 Z" fill="#55b9ff" fill-opacity="0.9"/>
  <path d="M17 20 L29 18 L39 21 L41 24 L39 27 L29 30 L17 28 L20 24 Z" fill="#b3f1ff" fill-opacity="0.95"/>
  <ellipse cx="31.5" cy="24.5" rx="7.5" ry="7.5" fill="#8de9ff" fill-opacity="0.65"/>
  <ellipse cx="32.5" cy="24.5" rx="5.5" ry="5.5" fill="url(#core)"/>
  <ellipse cx="33.5" cy="24.5" rx="3.5" ry="3.5" fill="#ffffff"/>

  <path d="M7 24 L12 19 L17 23 L22 16 L27 24 L31 19 L35 25 L41 18" fill="none" stroke="#8fe8ff" stroke-width="3" stroke-linecap="round" stroke-linejoin="round"/>
  <path d="M8 27 L13 30 L18 24 L22 29 L27 22 L31 28 L36 21 L41 24" fill="none" stroke="#ffffff" stroke-width="1.3" stroke-linecap="round" stroke-linejoin="round" stroke-opacity="0.95"/>

  <polygon points="39,22 46,20 43,24" fill="#dff9ff"/>
  <polygon points="39,26 45,28 42,24" fill="#8ee7ff" fill-opacity="0.9"/>
  <polygon points="37,18 43,15 40,21" fill="#b9f2ff" fill-opacity="0.9"/>

  <circle cx="8" cy="13" r="2" fill="#c8f7ff" fill-opacity="0.7"/>
  <circle cx="6" cy="23" r="2" fill="#9feaff" fill-opacity="0.5"/>
  <circle cx="8" cy="35" r="2" fill="#9feaff" fill-opacity="0.45"/>
  <circle cx="13" cy="10" r="1" fill="#e8fdff" fill-opacity="0.8"/>
  <circle cx="12" cy="38" r="1" fill="#c8f7ff" fill-opacity="0.75"/>
</svg>
