<?xml version="1.0" encoding="UTF-8"?>
<svg width="512" height="512" viewBox="0 0 512 512" fill="none" xmlns="http://www.w3.org/2000/svg">
<defs>
  <radialGradient id="bg" cx="0" cy="0" r="1" gradientUnits="userSpaceOnUse" gradientTransform="translate(256 226) rotate(90) scale(250 250)">
    <stop offset="0%" stop-color="#172554"/><stop offset="65%" stop-color="#111827"/><stop offset="100%" stop-color="#08101C"/>
  </radialGradient>
  <linearGradient id="ring" x1="120" y1="96" x2="392" y2="416" gradientUnits="userSpaceOnUse">
    <stop offset="0%" stop-color="#67E8F9"/><stop offset="100%" stop-color="#2563EB"/>
  </linearGradient>
  <linearGradient id="bolt" x1="166" y1="342" x2="340" y2="156" gradientUnits="userSpaceOnUse">
    <stop offset="0%" stop-color="#F59E0B"/><stop offset="45%" stop-color="#FDE68A"/><stop offset="100%" stop-color="#FFF7C2"/>
  </linearGradient>
  <filter id="g1" x="-80%" y="-80%" width="260%" height="260%"><feGaussianBlur stdDeviation="16"/><feMerge><feMergeNode/><feMergeNode in="SourceGraphic"/></feMerge></filter>
  <filter id="g2" x="-60%" y="-60%" width="220%" height="220%"><feGaussianBlur stdDeviation="8"/><feMerge><feMergeNode/><feMergeNode in="SourceGraphic"/></feMerge></filter>
</defs>
<rect x="28" y="28" width="456" height="456" rx="132" fill="url(#bg)"/>
<circle cx="256" cy="256" r="168" stroke="url(#ring)" stroke-opacity="0.78" stroke-width="14"/>
<circle cx="256" cy="256" r="132" stroke="#D6FBFF" stroke-opacity="0.18" stroke-width="6" stroke-dasharray="8 16"/>
<g filter="url(#g1)">
  <path d="M156 332 C190 278 228 240 286 198" stroke="#60A5FA" stroke-opacity="0.34" stroke-width="24" stroke-linecap="round"/>
  <path d="M182 356 C220 300 256 262 320 210" stroke="#A5F3FC" stroke-opacity="0.22" stroke-width="10" stroke-linecap="round" stroke-dasharray="4 14"/>
</g>
<g filter="url(#g2)">
  <path d="M230 118 L188 244 L250 244 L212 394 L338 224 L270 224 L314 118 Z" fill="url(#bolt)"/>
  <path d="M124 222 A142 142 0 0 1 164 158" stroke="#E0FBFF" stroke-opacity="0.82" stroke-width="14" stroke-linecap="round"/>
  <path d="M148 340 A142 142 0 0 0 384 192" stroke="#67E8F9" stroke-opacity="0.74" stroke-width="12" stroke-linecap="round"/>
  <path d="M370 160 L392 186 L356 188" stroke="#E0FBFF" stroke-width="12" stroke-linecap="round" stroke-linejoin="round"/>
  <circle cx="164" cy="158" r="10" fill="#E0FBFF"/><circle cx="384" cy="192" r="9" fill="#67E8F9"/>
</g>
</svg>