<?xml version="1.0" encoding="UTF-8"?>
<svg width="512" height="512" viewBox="0 0 512 512" fill="none" xmlns="http://www.w3.org/2000/svg">
<defs>
  <radialGradient id="bg" cx="0" cy="0" r="1" gradientUnits="userSpaceOnUse" gradientTransform="translate(256 226) rotate(90) scale(250 250)">
    <stop offset="0%" stop-color="#3C2307"/><stop offset="65%" stop-color="#20160B"/><stop offset="100%" stop-color="#090603"/>
  </radialGradient>
  <linearGradient id="ring" x1="120" y1="96" x2="392" y2="416" gradientUnits="userSpaceOnUse">
    <stop offset="0%" stop-color="#FDE68A"/><stop offset="100%" stop-color="#D97706"/>
  </linearGradient>
  <radialGradient id="orb" cx="0" cy="0" r="1" gradientUnits="userSpaceOnUse" gradientTransform="translate(256 256) rotate(90) scale(70 70)">
    <stop offset="0%" stop-color="#FFFFFF"/><stop offset="50%" stop-color="#FDE68A"/><stop offset="100%" stop-color="#F59E0B"/>
  </radialGradient>
  <filter id="g1" x="-80%" y="-80%" width="260%" height="260%"><feGaussianBlur stdDeviation="16"/><feMerge><feMergeNode/><feMergeNode in="SourceGraphic"/></feMerge></filter>
  <filter id="g2" x="-60%" y="-60%" width="220%" height="220%"><feGaussianBlur stdDeviation="8"/><feMerge><feMergeNode/><feMergeNode in="SourceGraphic"/></feMerge></filter>
</defs>
<rect x="28" y="28" width="456" height="456" rx="132" fill="url(#bg)"/>
<circle cx="256" cy="256" r="168" stroke="url(#ring)" stroke-opacity="0.78" stroke-width="14"/>
<circle cx="256" cy="256" r="132" stroke="#FFF4C7" stroke-opacity="0.14" stroke-width="6" stroke-dasharray="8 16"/>
<g filter="url(#g1)">
  <circle cx="256" cy="256" r="54" fill="url(#orb)"/>
  <circle cx="256" cy="256" r="96" stroke="#FDE68A" stroke-opacity="0.74" stroke-width="10"/>
  <circle cx="256" cy="256" r="134" stroke="#FCD34D" stroke-opacity="0.42" stroke-width="8" stroke-dasharray="10 18"/>
</g>
<g filter="url(#g2)">
  <path d="M126 256 C162 256 182 256 204 256" stroke="#FFF4C7" stroke-opacity="0.94" stroke-width="12" stroke-linecap="round"/>
  <path d="M386 256 C350 256 330 256 308 256" stroke="#FFF4C7" stroke-opacity="0.94" stroke-width="12" stroke-linecap="round"/>
  <path d="M256 126 C256 162 256 182 256 204" stroke="#FFF4C7" stroke-opacity="0.88" stroke-width="11" stroke-linecap="round"/>
  <path d="M256 386 C256 350 256 330 256 308" stroke="#FFF4C7" stroke-opacity="0.88" stroke-width="11" stroke-linecap="round"/>
  <circle cx="146" cy="256" r="10" fill="#FFF4C7"/><circle cx="366" cy="256" r="10" fill="#FFF4C7"/><circle cx="256" cy="146" r="10" fill="#FFF4C7"/><circle cx="256" cy="366" r="10" fill="#FFF4C7"/>
</g>
</svg>